<?xml version="1.0" encoding="utf-8"?>
<!-- Generator: Adobe Illustrator 19.2.1, SVG Export Plug-In . SVG Version: 6.00 Build 0)  -->
<svg version="1.1" id="Слой_1" xmlns="http://www.w3.org/2000/svg" xmlns:xlink="http://www.w3.org/1999/xlink" x="0px" y="0px"
	 viewBox="0 0 998 998" style="enable-background:new 0 0 998 998;" xml:space="preserve">
<style type="text/css">
	.st0{fill:#FFFFFF;}
</style>
<path class="st0" d="M386.7,535.4c8.1,0,14.6-6.6,14.6-14.6V363.2c0-8.1-6.6-14.6-14.6-14.6h-79.4c-8.1,0-14.6,6.6-14.6,14.6v157.6
	c0,8.1,6.6,14.6,14.6,14.6H386.7z M321.9,377.9H372v128.3h-50.1V377.9z"/>
<path class="st0" d="M458.3,535.4h79.4c8.1,0,14.6-6.6,14.6-14.6V363.2c0-8.1-6.6-14.6-14.6-14.6h-79.4c-8.1,0-14.6,6.6-14.6,14.6
	v157.6C443.6,528.9,450.2,535.4,458.3,535.4z M472.9,377.9h50.1v128.3h-50.1V377.9z"/>
<path class="st0" d="M183.3,762.3c8.1,0,14.6-6.5,14.6-14.6V590.1c0-8.1-6.6-14.6-14.6-14.6h-79.4c-8.1,0-14.6,6.6-14.6,14.6v157.5
	c0,8.1,6.6,14.6,14.6,14.6H183.3z M118.6,604.7h50.1V733h-50.1V604.7z"/>
<path class="st0" d="M812.6,762.3H892c8.1,0,14.6-6.5,14.6-14.6V590.1c0-8.1-6.6-14.6-14.6-14.6h-79.4c-8.1,0-14.6,6.6-14.6,14.6
	v157.5C798,755.7,804.5,762.3,812.6,762.3z M827.3,604.7h50.1V733h-50.1V604.7z"/>
<path class="st0" d="M609.3,535.4h79.4c8.1,0,14.6-6.6,14.6-14.6V363.2c0-8.1-6.6-14.6-14.6-14.6h-79.4c-8.1,0-14.6,6.6-14.6,14.6
	v157.6C594.7,528.9,601.2,535.4,609.3,535.4z M624,377.9h50.1v128.3H624V377.9z"/>
<path class="st0" d="M483.3,154.4c0,8.1,6.6,14.6,14.6,14.6s14.6-6.6,14.6-14.6v-30.3h30.3c8.1,0,14.6-6.6,14.6-14.6
	s-6.6-14.6-14.6-14.6h-30.3V64.5c0-8.1-6.6-14.6-14.6-14.6s-14.6,6.6-14.6,14.6v30.3h-30.3c-8.1,0-14.6,6.6-14.6,14.6
	s6.6,14.6,14.6,14.6h30.3V154.4z"/>
<path class="st0" d="M983.3,424.4c8.1,0,14.6-6.6,14.6-14.6V357c0-8.1-6.6-14.6-14.6-14.6h-88.9c-8.1,0-14.6,6.6-14.6,14.6
	s6.6,14.6,14.6,14.6h74.2v23.4c-24.8,0-201,0-211.5,0v-23.4h64.4c8.1,0,14.6-6.6,14.6-14.6s-6.5-14.6-14.6-14.6h-64.4v-68.7h22.5
	c8.1,0,14.6-6.5,14.6-14.6v-52.7c0-8.1-6.6-14.6-14.6-14.6H649v-179C649,4.5,642.4-2,634.3-2H361.7C353.6-2,347,4.5,347,12.6v179
	H216.3c-8.1,0-14.6,6.6-14.6,14.6V259c0,8.1,6.6,14.6,14.6,14.6h22.5v68.7H12.6C4.5,342.4-2,348.9-2,357v52.7
	c0,8.1,6.6,14.6,14.6,14.6h6.5v96.4c0,8.1,6.6,14.6,14.6,14.6s14.6-6.6,14.6-14.6v-96.4h190.4v488.9H48.4V593.5
	c0-8.1-6.6-14.6-14.6-14.6s-14.6,6.6-14.6,14.6v319.8h-6.5c-8.1,0-14.6,6.6-14.6,14.6v55.4c0,8.1,6.6,14.6,14.6,14.6h970.7
	c8.1,0,14.6-6.6,14.6-14.6v-55.4c0-8.1-6.6-14.6-14.6-14.6h-6.5V424.4H983.3z M231,221h227.7c8.1,0,14.6-6.6,14.6-14.6
	c0-8.1-6.6-14.6-14.6-14.6h-82.3V27.3h243.4v164.4h-78.1c-8.1,0-14.6,6.6-14.6,14.6c0,8.1,6.6,14.6,14.6,14.6H765v23.4H231V221z
	 M27.3,371.7h211.5v23.4H27.3V371.7z M268.1,273.7h459.7v639.6h-84.4V681.6c0-8.1-6.6-14.6-14.6-14.6H367.1
	c-8.1,0-14.6,6.6-14.6,14.6v231.7h-84.4V273.7z M381.8,913.3V696.2h101.6v217.1H381.8z M512.6,696.2h101.6v217.1H512.6V696.2z
	 M968.7,968.7H27.3v-26.1h941.4V968.7z M947.5,913.3H757.1V424.4h190.4L947.5,913.3L947.5,913.3z"/>
</svg>
