<svg 
 xmlns="http://www.w3.org/2000/svg"
 xmlns:xlink="http://www.w3.org/1999/xlink"
 width="45px" height="36px">
<defs>
<linearGradient id="PSgrad_0" x1="0%" x2="0%" y1="0%" y2="100%">
  <stop offset="0%" stop-color="rgb(115,87,49)" stop-opacity="1" />
  <stop offset="100%" stop-color="rgb(230,225,157)" stop-opacity="1" />
</linearGradient>

</defs>
<path fill-rule="evenodd"  fill="rgb(255, 255, 255)"
 d="M10.280,35.983 C12.920,35.983 15.179,35.104 17.060,33.343 C18.939,31.584 19.880,29.424 19.880,26.863 C19.880,23.664 18.519,21.103 15.800,19.183 L20.720,0.464 L11.600,0.464 L3.800,16.543 C2.679,18.944 1.880,20.904 1.400,22.423 C0.920,23.944 0.680,25.384 0.680,26.743 C0.680,29.383 1.599,31.584 3.440,33.343 C5.279,35.104 7.559,35.983 10.280,35.983 L10.280,35.983 ZM34.160,35.983 C36.800,35.983 39.059,35.104 40.940,33.343 C42.819,31.584 43.760,29.424 43.760,26.863 C43.760,23.664 42.399,21.103 39.680,19.183 L44.600,0.464 L35.480,0.464 L27.680,16.543 C26.559,18.944 25.760,20.904 25.280,22.423 C24.800,23.944 24.560,25.384 24.560,26.743 C24.560,29.383 25.479,31.584 27.320,33.343 C29.159,35.104 31.439,35.983 34.160,35.983 L34.160,35.983 Z"/>
<path fill="url(#PSgrad_0)"
 d="M10.280,35.983 C12.920,35.983 15.179,35.104 17.060,33.343 C18.939,31.584 19.880,29.424 19.880,26.863 C19.880,23.664 18.519,21.103 15.800,19.183 L20.720,0.464 L11.600,0.464 L3.800,16.543 C2.679,18.944 1.880,20.904 1.400,22.423 C0.920,23.944 0.680,25.384 0.680,26.743 C0.680,29.383 1.599,31.584 3.440,33.343 C5.279,35.104 7.559,35.983 10.280,35.983 L10.280,35.983 ZM34.160,35.983 C36.800,35.983 39.059,35.104 40.940,33.343 C42.819,31.584 43.760,29.424 43.760,26.863 C43.760,23.664 42.399,21.103 39.680,19.183 L44.600,0.464 L35.480,0.464 L27.680,16.543 C26.559,18.944 25.760,20.904 25.280,22.423 C24.800,23.944 24.560,25.384 24.560,26.743 C24.560,29.383 25.479,31.584 27.320,33.343 C29.159,35.104 31.439,35.983 34.160,35.983 L34.160,35.983 Z"/>
</svg>