<?xml version="1.0" encoding="utf-8"?>
<!-- Generator: Adobe Illustrator 19.2.1, SVG Export Plug-In . SVG Version: 6.00 Build 0)  -->
<svg version="1.1" id="Слой_1" xmlns="http://www.w3.org/2000/svg" xmlns:xlink="http://www.w3.org/1999/xlink" x="0px" y="0px"
	 viewBox="0 0 512 512" style="enable-background:new 0 0 512 512;" xml:space="preserve">
<style type="text/css">
	.st0{fill:#FFFFFF;}
</style>
<path class="st0" d="M413.3,168.5V244c0,9.7,15,9.7,15,0v-75.5C428.3,158.8,413.3,158.8,413.3,168.5z"/>
<path class="st0" d="M450.2,251.5c4.1,0,7.5-3.4,7.5-7.5v-75.5c0-9.7-15-9.7-15,0V244C442.7,248.1,446,251.5,450.2,251.5z"/>
<path class="st0" d="M261.9,89c-4.1,0-7.5,3.4-7.5,7.5v233c0,4.1,3.4,7.5,7.5,7.5c4.1,0,7.5-3.4,7.5-7.5v-233
	C269.4,92.4,266,89,261.9,89z"/>
<path class="st0" d="M188.3,89c-4.1,0-7.5,3.4-7.5,7.5v233c0,4.1,3.4,7.5,7.5,7.5c4.1,0,7.5-3.4,7.5-7.5v-233
	C195.8,92.4,192.4,89,188.3,89z"/>
<path class="st0" d="M226.1,89c-4.1,0-7.5,3.4-7.5,7.5v233c0,4.1,3.4,7.5,7.5,7.5c4.1,0,7.5-3.4,7.5-7.5v-233
	C233.6,92.4,230.3,89,226.1,89z"/>
<path class="st0" d="M43.1,408.8h91.8c9.7,0,9.7-15,0-15H43.1C33.4,393.8,33.4,408.8,43.1,408.8z"/>
<path class="st0" d="M43.1,440.6h91.8c9.7,0,9.7-15,0-15H43.1C33.4,425.6,33.4,440.6,43.1,440.6z"/>
<path class="st0" d="M43.1,472.4h91.8c9.7,0,9.7-15,0-15H43.1C33.4,457.4,33.4,472.4,43.1,472.4z"/>
<path class="st0" d="M58.8,152.1c-9.7,0-9.7,15,0,15C68.5,167.1,68.5,152.1,58.8,152.1z"/>
<path class="st0" d="M89,152.1c-9.7,0-9.7,15,0,15C98.7,167.1,98.7,152.1,89,152.1z"/>
<path class="st0" d="M119.2,152.1c-9.7,0-9.7,15,0,15C128.8,167.1,128.8,152.1,119.2,152.1z"/>
<path class="st0" d="M58.8,185.5c-9.7,0-9.7,15,0,15C68.5,200.5,68.5,185.5,58.8,185.5z"/>
<path class="st0" d="M89,185.5c-9.7,0-9.7,15,0,15C98.7,200.5,98.7,185.5,89,185.5z"/>
<path class="st0" d="M119.2,185.5c-9.7,0-9.7,15,0,15C128.8,200.5,128.8,185.5,119.2,185.5z"/>
<path class="st0" d="M58.8,218.9c-9.7,0-9.7,15,0,15C68.5,233.9,68.5,218.9,58.8,218.9z"/>
<path class="st0" d="M89,218.9c-9.7,0-9.7,15,0,15C98.7,233.9,98.7,218.9,89,218.9z"/>
<path class="st0" d="M119.2,218.9c-9.7,0-9.7,15,0,15C128.8,233.9,128.8,218.9,119.2,218.9z"/>
<path class="st0" d="M58.8,252.3c-9.7,0-9.7,15,0,15C68.5,267.3,68.5,252.3,58.8,252.3z"/>
<path class="st0" d="M89,252.3c-9.7,0-9.7,15,0,15C98.7,267.3,98.7,252.3,89,252.3z"/>
<path class="st0" d="M119.2,252.3c-9.7,0-9.7,15,0,15C128.8,267.3,128.8,252.3,119.2,252.3z"/>
<path class="st0" d="M58.8,285.7c-9.7,0-9.7,15,0,15C68.5,300.7,68.5,285.7,58.8,285.7z"/>
<path class="st0" d="M89,285.7c-9.7,0-9.7,15,0,15C98.7,300.7,98.7,285.7,89,285.7z"/>
<path class="st0" d="M119.2,285.7c-9.7,0-9.7,15,0,15C128.8,300.7,128.8,285.7,119.2,285.7z"/>
<path class="st0" d="M58.8,319.1c-9.7,0-9.7,15,0,15C68.5,334.1,68.5,319.1,58.8,319.1z"/>
<path class="st0" d="M89,319.1c-9.7,0-9.7,15,0,15C98.7,334.1,98.7,319.1,89,319.1z"/>
<path class="st0" d="M119.2,319.1c-9.7,0-9.7,15,0,15C128.8,334.1,128.8,319.1,119.2,319.1z"/>
<path class="st0" d="M373.8,327.4c4.1,0,7.5-3.4,7.5-7.5v-20.9c0-9.7-15-9.7-15,0v20.9C366.3,324.1,369.7,327.4,373.8,327.4z"/>
<path class="st0" d="M336.5,376.4c4.1,0,7.5-3.4,7.5-7.5v-69.4c0-10.1-15-10.2-15,0v69.4C329,373.1,332.3,376.4,336.5,376.4z"/>
<path class="st0" d="M373.8,424c4.1,0,7.5-3.4,7.5-7.5v-68.4c0-9.7-15-9.7-15,0v68.4C366.3,420.6,369.7,424,373.8,424z"/>
<path class="st0" d="M336.5,425.4c4.1,0,7.5-3.4,7.5-7.5v-20.9c0-9.7-15-9.7-15,0v20.9C329,422.1,332.3,425.4,336.5,425.4z"/>
<path class="st0" d="M336.5,474.4c4.1,0,7.5-3.4,7.5-7.5v-20.9c0-9.7-15-9.7-15,0v20.9C329,471.1,332.3,474.4,336.5,474.4z"/>
<path class="st0" d="M373.8,474.4c4.1,0,7.5-3.4,7.5-7.5v-20.9c0-9.7-15-9.7-15,0v20.9C366.3,471.1,369.7,474.4,373.8,474.4z"/>
<path class="st0" d="M510.6,127l-11-31c-1.1-3-3.9-5-7.1-5h-14.1L444,33.2c-1.4-2.3-3.8-3.7-6.4-3.7h-9.3v-22c0-9.7-15-9.7-15,0v22
	h-13.6c-2.8,0-5.3,1.6-6.6,4L363,91h-13.9c-3.2,0-6,2-7.1,5l-11,31c-1.7,4.8,2.1,10,7.1,10h11.4v69.3l-43.8-36.8v-113
	c0-4.1-3.4-7.5-7.5-7.5h-19.7V7.5c0-4.1-3.4-7.5-7.5-7.5h-91.8c-4.1,0-7.5,3.4-7.5,7.5V49H152c-4.1,0-7.5,3.4-7.5,7.5v57h-15v-74
	c0-5.4-6-9.1-10.9-6.7l-65.9,33c-2.5,1.3-4.1,3.9-4.1,6.7v41H26.7c-4.1,0-7.5,3.4-7.5,7.5v234.2H7.5c-4.1,0-7.5,3.4-7.5,7.5V432
	c0,9.7,15,9.7,15,0v-61.7h148V497H15v-29c0-9.7-15-9.7-15,0v36.5c0,4.1,3.4,7.5,7.5,7.5h422c9.7,0,9.7-15,0-15h-9.9V268.8
	c0-2.2-1-4.3-2.7-5.7l-18.8-15.8c0.5-1,0.7-2.1,0.7-3.2v-75.5c0-9.7-15-9.7-15,0v66.7L364.5,219v-81.5H477V497h-9.6
	c-9.7,0-9.7,15,0,15h17.1c4.1,0,7.5-3.4,7.5-7.5V137h11.4C508.5,137,512.3,131.8,510.6,127z M186.7,15h76.8v34h-76.8V15z M63.5,77.2
	l50.9-25.5v61.9H63.5V77.2z M34.2,355.3V128.5H55c0.4,0.1,0.7,0.1,1.1,0.1H122c0.4,0,0.7,0,1.1-0.1h20.8v226.7H34.2z M404.6,497
	h-98.9V262c0-4.1-3.4-7.5-7.5-7.5s-7.5,3.4-7.5,7.5v235H178V362.8c0-4.1-3.4-7.5-7.5-7.5h-11V64h131.2v160c0,4.1,3.4,7.5,7.5,7.5
	s7.5-3.4,7.5-7.5v-34.9l98.9,83.1V497z M404.2,44.5h29.1L461,91h-81.1L404.2,44.5z M348.7,122l5.7-16h132.8l5.7,16H348.7z"/>
<path class="st0" d="M450.4,276.5c-9.7,0-9.7,15,0,15C460.1,291.5,460.1,276.5,450.4,276.5z"/>
<path class="st0" d="M450.4,312.7c-9.7,0-9.7,15,0,15C460.1,327.7,460.1,312.7,450.4,312.7z"/>
<path class="st0" d="M450.4,348.9c-9.7,0-9.7,15,0,15C460.1,363.9,460.1,348.9,450.4,348.9z"/>
<path class="st0" d="M450.4,385.1c-9.7,0-9.7,15,0,15C460.1,400.1,460.1,385.1,450.4,385.1z"/>
<path class="st0" d="M450.4,421.3c-9.7,0-9.7,15,0,15C460.1,436.3,460.1,421.3,450.4,421.3z"/>
<path class="st0" d="M450.4,457.5c-9.7,0-9.7,15,0,15C460.1,472.5,460.1,457.5,450.4,457.5z"/>
</svg>
