<?xml version="1.0" encoding="utf-8"?>
<!-- Generator: Adobe Illustrator 19.2.1, SVG Export Plug-In . SVG Version: 6.00 Build 0)  -->
<svg version="1.1" id="outline" xmlns="http://www.w3.org/2000/svg" xmlns:xlink="http://www.w3.org/1999/xlink" x="0px" y="0px"
	 viewBox="0 0 512 512" style="enable-background:new 0 0 512 512;" xml:space="preserve">
<style type="text/css">
	.st0{fill:#FFFFFF;}
</style>
<path class="st0" d="M4.7,178.1l115.2,75.5v62v57.7c0,2.3,0.9,4.4,2.5,6c57.8,57.7,146.1,71.8,218.9,35c1.3,10.4,6.4,20.1,14.3,26.9
	l-14.3,47.7c-1,3.4,0.2,7.1,3,9.2c23.2,17.3,55,17.3,78.2,0c2.9-2.1,4.1-5.8,3-9.2l-14.3-47.7c17.7-15.3,19.6-42.2,4.3-59.9
	c-2-2.3-4.2-4.4-6.6-6.2V273c0-2.3-0.9-4.4-2.5-6l-13.9-13.9l114.6-75.1c3.9-2.6,5-7.8,2.5-11.8c-0.6-1-1.5-1.8-2.5-2.5L260.7,2.3
	c-2.8-1.9-6.5-1.9-9.3,0L140.8,74.7l9.3,14.2L256,19.6L487.1,171l-106.7,69.9l-82.2-82.2c-2.4-17-20.4-30.2-42.2-30.2
	c-23.4,0-42.5,15.3-42.5,34s19.1,34,42.5,34c1.6,0,3.2-0.1,4.8-0.2l74.3,74.3L256,322.4L24.9,171l108.2-70.9l-9.3-14.2l-119.1,78
	c-3.9,2.6-5,7.8-2.5,11.8C2.9,176.6,3.8,177.4,4.7,178.1L4.7,178.1z M383.6,383.6c14.1,0,25.5,11.4,25.5,25.5
	c0,14.1-11.4,25.5-25.5,25.5c-14.1,0-25.5-11.4-25.5-25.5C358.1,395,369.5,383.6,383.6,383.6z M407.6,487.7
	c-14.9,8.5-33.2,8.5-48.1,0l11.4-38c8.2,2.6,17.1,2.6,25.3,0L407.6,487.7z M230.5,162.5c0-9.2,11.7-17,25.5-17
	c13.8,0,25.5,7.8,25.5,17c0,9.2-11.7,17-25.5,17C242.2,179.5,230.5,171.7,230.5,162.5z M293.7,178.2l98.4,98.4v90.9
	c-5.6-1.1-11.4-1.1-17,0V290c0-2.3-0.9-4.4-2.5-6l-93.2-93.2C285.2,187.9,290.1,183.5,293.7,178.2L293.7,178.2z M256,341
	c1.7,0,3.3-0.5,4.7-1.4l86.7-56.8l10.7,10.7v48c-50.7,37.4-117.9,44.1-175,17.4l-7.2,15.4c58.8,27.5,127.6,22.9,182.2-12.1v12.9
	c-6.2,4.7-11.1,11-14,18.3c-32.2,19.1-69.7,27.2-106.8,23.2c-37.7-4-73-20.5-100.3-46.9v-19.9c6.7,5.5,13.7,10.4,21.1,14.9l8.8-14.5
	c-10.8-6.6-20.8-14.3-29.9-23v-62.5l114.4,75C252.7,340.6,254.3,341,256,341z"/>
</svg>
