<?xml version="1.0" encoding="utf-8"?>
<!-- Generator: Adobe Illustrator 19.2.1, SVG Export Plug-In . SVG Version: 6.00 Build 0)  -->
<svg version="1.1" id="Capa_1" xmlns="http://www.w3.org/2000/svg" xmlns:xlink="http://www.w3.org/1999/xlink" x="0px" y="0px"
	 viewBox="0 0 512.1 512.1" style="enable-background:new 0 0 512.1 512.1;" xml:space="preserve">
<style type="text/css">
	.st0{fill:#191A1E;}
</style>
<g transform="translate(1 1)">
	<g>
		<g>
			<path class="st0" d="M404.4,489.7V20.4c0-16.9-18.7-27.1-32.9-17.9L8.8,237.1c-13,8.4-13,27.4,0,35.8l362.7,234.7
				C385.6,516.8,404.4,506.6,404.4,489.7z M59.6,255L361.7,59.6v390.9L59.6,255z"/>
			<path class="st0" d="M468.4,20.4v469.3c0,11.8,9.6,21.3,21.3,21.3s21.3-9.6,21.3-21.3V20.4C511,8.6,501.5-1,489.7-1
				S468.4,8.6,468.4,20.4z"/>
		</g>
	</g>
</g>
</svg>
