<?xml version="1.0" encoding="utf-8"?>
<!-- Generator: Adobe Illustrator 19.2.1, SVG Export Plug-In . SVG Version: 6.00 Build 0)  -->
<svg version="1.1" id="Capa_1" xmlns="http://www.w3.org/2000/svg" xmlns:xlink="http://www.w3.org/1999/xlink" x="0px" y="0px"
	 viewBox="0 0 512.1 512.1" style="enable-background:new 0 0 512.1 512.1;" xml:space="preserve">
<style type="text/css">
	.st0{fill:#191A1E;}
</style>
<g transform="translate(1 1)">
	<g>
		<g>
			<path class="st0" d="M105.6,20.4v469.3c0,16.9,18.7,27.1,32.9,17.9L501.2,273c13-8.4,13-27.4,0-35.8L138.5,2.5
				C124.4-6.7,105.6,3.5,105.6,20.4z M450.4,255.1L148.3,450.5V59.6L450.4,255.1z"/>
			<path class="st0" d="M41.6,489.7V20.4C41.6,8.6,32-0.9,20.3-0.9S-0.9,8.7-0.9,20.4v469.3c0,11.8,9.5,21.4,21.3,21.4
				S41.6,501.5,41.6,489.7z"/>
		</g>
	</g>
</g>
</svg>
