<?xml version="1.0" encoding="utf-8"?>
<!-- Generator: Adobe Illustrator 19.2.1, SVG Export Plug-In . SVG Version: 6.00 Build 0)  -->
<svg version="1.1" id="Слой_1" xmlns="http://www.w3.org/2000/svg" xmlns:xlink="http://www.w3.org/1999/xlink" x="0px" y="0px"
	 viewBox="0 0 630.1 639.4" style="enable-background:new 0 0 630.1 639.4;" xml:space="preserve">
<style type="text/css">
	.st0{fill:#FFFFFF;}
</style>
<path class="st0" d="M617.8,565.8c-7.7-7.9-17.7-12.5-28.6-13.1c0.3-1.8,0.5-3.6,0.5-5.4c0-17.6-14.1-31.9-32.3-32.5
	c-16.8-0.5-29.7,8.4-35.1,24c-6.9,1.5-12.6,4.3-17.2,8.3V182.5c0.5,0,0.9,0,1.4,0c6.6,0,13.1-1.8,19-5.3
	c11.2-6.7,17.9-18.6,17.9-31.7c0-13.4-7.3-25.8-19.1-32.3L503,101.5c-4.5-2.5-10.2-0.9-12.7,3.7c-2.5,4.5-0.9,10.2,3.7,12.7
	l21.4,11.8c5.8,3.2,9.4,9.3,9.4,16c0,6.5-3.3,12.3-8.9,15.7c-5.5,3.3-12.3,3.5-18,0.5L322.6,68.7c-4.6-2.4-10-2.4-14.6,0
	l-175.3,93.1c-5.7,3-12.4,2.9-18-0.5c-5.5-3.3-8.9-9.2-8.9-15.7c0-6.6,3.6-12.8,9.4-16l200-110.5l140.6,77.7
	c4.5,2.5,10.2,0.9,12.7-3.7c2.5-4.5,0.9-10.2-3.7-12.7L322.8,1.9c-4.7-2.6-10.3-2.6-15.1,0L106.3,113.3
	c-11.8,6.5-19.1,18.9-19.1,32.3c0,13.1,6.7,24.9,17.9,31.7c6.3,3.8,13.4,5.6,20.4,5.3v364.9c-4.6-4.1-10.4-7-17.4-8.5
	c-5.4-15.7-18.3-24.5-35.1-24c-18.2,0.6-32.3,14.9-32.3,32.5c0,1.8,0.2,3.6,0.5,5.4c-10.9,0.6-20.9,5.2-28.6,13.1
	C4.4,574.2,0,585.4,0.3,597.2c0.6,23.2,20.4,42.1,44.1,42.1H586c23.6,0,43.4-18.9,44-42.1C630.4,585.4,626,574.2,617.8,565.8z
	 M159.7,612.8c-4.8,5.1-11.2,7.9-18.2,7.9H44.4c-13.6,0-25-10.8-25.4-24c-0.2-6.7,2.3-13.1,7-17.9c4.6-4.8,10.8-7.4,17.5-7.5l4,0.2
	c4.6,0.2,8.9-1.9,11.6-5.6c2.7-3.7,3.3-8.5,1.7-12.7c-0.1-0.2-0.1-0.3-0.2-0.5c-0.7-1.7-1.1-3.6-1.1-5.4c0-7.3,6.4-13.5,14.2-13.7
	c9.1-0.3,14.9,4.2,17.4,13.3c1.4,5.2,5.7,9.1,11,9.9c9.5,1.5,12.7,5.4,14.6,9c3.1,6,10.3,8.8,16.6,6.5c3.3-1.2,6.7-1.6,10.2-1.4
	c12.3,0.9,22.2,10.8,23,23.1C166.8,601,164.5,607.7,159.7,612.8z M305.8,618.1h-84.1v-171h84.1V618.1z M408.6,618.1h-84.1v-171h84.1
	V618.1z M453.1,620.7h-25.8v-174c6.8-1.7,11.9-7.8,11.9-15.1v-22.5c0-8.6-7-15.6-15.6-15.6H285.2c-5.2,0-9.3,4.2-9.3,9.3
	c0,5.2,4.2,9.3,9.3,9.3h135.4v16.2H209.8v-16.2h32.1c5.2,0,9.3-4.2,9.3-9.3c0-5.2-4.2-9.3-9.3-9.3h-35.2c-8.6,0-15.6,7-15.6,15.6
	v22.5c0,7.3,5.1,13.5,11.9,15.1v174h-25.8c5.7-8.1,8.4-17.8,7.7-27.9c-1.5-21.5-18.8-38.9-40.3-40.5c-0.2,0-0.3,0-0.5,0V176.8
	l171.1-90.8l171.1,90.8v375.5c-0.2,0-0.5,0-0.7,0c-21.5,1.5-38.9,18.9-40.3,40.5C444.7,602.9,447.4,612.6,453.1,620.7z M586,620.7
	h-97.1c-7,0-13.4-2.8-18.2-7.9c-4.8-5.1-7.1-11.8-6.6-18.8c0.8-12.3,10.7-22.2,23-23.1c0.6,0,1.2-0.1,1.8-0.1c2.9,0,5.7,0.5,8.4,1.4
	c6.3,2.3,13.5-0.6,16.6-6.5c1.9-3.6,5.1-7.5,14.6-9c5.3-0.9,9.6-4.8,11-9.9c2.4-9.1,8.2-13.6,17.4-13.3c7.9,0.3,14.2,6.4,14.2,13.7
	c0,1.9-0.4,3.7-1.1,5.5c-0.1,0.2-0.1,0.3-0.2,0.5c-1.6,4.3-0.9,9,1.7,12.7c2.7,3.7,7,5.8,11.6,5.6h0l4-0.2c6.6,0,12.8,2.7,17.5,7.5
	c4.7,4.8,7.2,11.2,7,17.9C611,609.9,599.6,620.7,586,620.7z"/>
<path class="st0" d="M455.6,313.3C455.6,313.2,455.6,313.2,455.6,313.3c0-12.7-8.2-23.5-19.5-27.4c0-0.4,0-0.7,0-1.1
	c0-15.9-13-28.9-28.9-28.9c-4,0-7.8,0.8-11.3,2.3v-43c0-44.5-36.2-80.7-80.7-80.7s-80.7,36.2-80.7,80.7v42.9
	c-3.5-1.5-7.3-2.3-11.2-2.3c-15.9,0-28.9,13-28.9,28.9c0,0.4,0,0.7,0,1.1c-11.4,3.9-19.6,14.7-19.6,27.4c0,0,0,0.1,0,0.1
	c-4.6,2.7-7.8,7.7-7.8,13.5v25.2c0,8.6,7,15.6,15.6,15.6h265.2c8.6,0,15.6-7,15.6-15.6v-25.2C463.3,321,460.2,316,455.6,313.3z
	 M387.7,303c0.3,0,0.7,0,1.2,0.1c3.4,0.4,6.8-1.1,8.8-4c2-2.8,2.2-6.5,0.6-9.6c-0.8-1.5-1.2-3.1-1.2-4.7c0-5.6,4.6-10.2,10.2-10.2
	c5.6,0,10.2,4.6,10.2,10.2c0,1.7-0.4,3.2-1.2,4.7c-1.6,3.1-1.4,6.7,0.6,9.6c1.9,2.8,5.3,4.4,8.7,4c0.4,0,0.8-0.1,1.1-0.1
	c4.9,0,9.1,3.5,10,8.2h-59C378.6,306.5,382.7,303,387.7,303z M253.2,215.2c0-34.2,27.8-62,62-62s62,27.8,62,62v71.1
	c-10.2,4-17.6,13.5-18.4,24.9h-87.3c-0.8-11.4-8.2-20.9-18.4-24.9V215.2z M203.7,303c0.3,0,0.7,0,1.2,0.1c3.4,0.4,6.8-1.1,8.8-4
	c2-2.8,2.2-6.5,0.6-9.6c-0.8-1.5-1.2-3.1-1.2-4.7c0-5.6,4.6-10.2,10.2-10.2c5.6,0,10.2,4.6,10.2,10.2c0,1.7-0.4,3.2-1.2,4.7
	c-1.6,3.1-1.4,6.7,0.6,9.6c1.9,2.8,5.3,4.4,8.7,4c0.4,0,0.8-0.1,1.1-0.1c4.9,0,9.1,3.5,10,8.2h-59C194.6,306.5,198.8,303,203.7,303z
	 M444.7,348.8h-259v-19h259V348.8z"/>
<path class="st0" d="M292.6,224.2c1.6,1.1,3.5,1.7,5.4,1.7c2.9,0,5.8-1.4,7.7-4l7.5-10.7c3-4.2,1.9-10-2.3-13
	c-4.2-3-10.1-1.9-13,2.3l-7.5,10.7C287.3,215.4,288.4,221.3,292.6,224.2z"/>
<path class="st0" d="M309.3,244.7c1.6,1.1,3.5,1.7,5.4,1.7c2.9,0,5.8-1.4,7.7-4l17.8-25.4c3-4.2,1.9-10-2.3-13c-4.2-3-10-1.9-13,2.3
	L307,231.7C304,235.9,305,241.7,309.3,244.7z"/>
</svg>
