<?xml version="1.0" encoding="utf-8"?>
<!-- Generator: Adobe Illustrator 19.2.1, SVG Export Plug-In . SVG Version: 6.00 Build 0)  -->
<svg version="1.1" id="Capa_1" xmlns="http://www.w3.org/2000/svg" xmlns:xlink="http://www.w3.org/1999/xlink" x="0px" y="0px"
	 viewBox="0 0 512 512" style="enable-background:new 0 0 512 512;" xml:space="preserve">
<style type="text/css">
	.st0{fill:#FFFFFF;}
</style>
<g>
	<g>
		<path class="st0" d="M177.1,66.1c-1.9-1.9-4.4-2.9-7.1-2.9c-2.6,0-5.2,1.1-7.1,2.9c-1.9,1.9-2.9,4.4-2.9,7.1
			c0,2.6,1.1,5.2,2.9,7.1c1.9,1.9,4.4,2.9,7.1,2.9c2.6,0,5.2-1.1,7.1-2.9c1.9-1.9,2.9-4.4,2.9-7.1C180,70.5,179,67.9,177.1,66.1z"/>
	</g>
</g>
<g>
	<g>
		<path class="st0" d="M501.9,491.8h-51.7c1-3.7,1.6-7.6,1.6-11.5c0-21.4-15.5-39.2-35.8-42.8c0-0.2,0-0.4,0-0.6v-33.3
			c53.8-5.1,96-50.4,96-105.5c0-28.2-11.4-55.4-31.4-75.3c-1.5-18-9.3-34.7-22.3-47.4c-14.1-13.7-32.6-21.3-52.3-21.3
			s-38.2,7.6-52.3,21.3c-5.6,5.4-10.1,11.6-13.7,18.2V73.1c0-5.5-4.5-10-10-10h-17V10c0-5.5-4.5-10-10-10H37.1c-5.5,0-10,4.5-10,10
			v53.2h-17c-5.5,0-10,4.5-10,10V502c0,5.5,4.5,10,10,10l491.8-0.2c5.5,0,10-4.5,10-10C511.9,496.3,507.4,491.8,501.9,491.8z
			 M347.9,234.7c2-1.8,3.2-4.4,3.2-7.1c0.8-30,24.8-53.4,54.8-53.4s54,23.5,54.8,53.4c0.1,2.7,1.2,5.3,3.2,7.1
			c17.7,16.3,27.9,39.4,27.9,63.4c0,44-33.3,80.4-76,85.4v-38.3c0,0,0,0,0,0v-39l17.8-17.8c3.9-3.9,3.9-10.2,0-14.1
			s-10.2-3.9-14.1,0l-3.7,3.7v-2.7c0-5.5-4.5-10-10-10s-10,4.5-10,10v26.9c0,0,0,0,0,0v19l-21.4-21.4c-3.9-3.9-10.2-3.9-14.1,0
			c-3.9,3.9-3.9,10.2,0,14.1l35.6,35.6v34.2c-42.7-5-76-41.4-76-85.4C320,274.1,330.2,251,347.9,234.7z M340,381
			c15.7,12.5,34.9,20.7,56,22.6v15.2c-9.7-7-21.6-11-34.1-11c-7.7,0-15.1,1.5-21.9,4.3V381z M128,492V368h0h69.8l-52.2,52.2
			c-3.9,3.9-3.9,10.2,0,14.1c2,2,4.5,2.9,7.1,2.9s5.1-1,7.1-2.9l52.2-52.2v45.9L148.1,492L128,492L128,492z M212,492h-35.7
			l35.7-35.7L212,492L212,492z M257.6,492H232V358c0-5.5-4.5-10-10-10H118c-5.5,0-10,4.5-10,10v134h-48v-94.1c0-5.5-4.5-10-10-10
			s-10,4.5-10,10V492h-20V83.1h111c5.5,0,10-4.5,10-10s-4.5-10-10-10h-84V20H293v43.2H210c-5.5,0-10,4.5-10,10c0,5.5,4.5,10,10,10
			H320v153.1c-12.9,17.9-20,39.6-20,61.9c0,23.2,7.5,44.7,20.2,62.1c-0.1,0.6-0.2,1.3-0.2,2v63.1c0,0.1,0,0.1,0,0.2
			c-3.7,3.8-6.8,8-9.4,12.8c-3.6-0.9-7.3-1.4-11-1.4c-24,0-43.5,19.5-43.5,43.5C256,484.3,256.6,488.2,257.6,492z M428.8,491.8H294
			H279c-2-3.5-3-7.5-3-11.5c0-13,10.5-23.5,23.5-23.5c4,0,8,1,11.5,3c2.6,1.5,5.7,1.7,8.5,0.6c2.8-1.1,4.9-3.3,5.9-6.2
			c5.2-15.8,19.9-26.4,36.5-26.4c15.3,0,29.1,9.1,35.3,23.1c1.7,3.8,5.6,6.2,9.7,6c0.5,0,0.9,0,1.4,0c13,0,23.5,10.5,23.5,23.5
			C431.8,484.4,430.7,488.4,428.8,491.8z"/>
	</g>
</g>
<g>
	<g>
		<path class="st0" d="M107,133.7h-48c-5.5,0-10,4.5-10,10v56c0,5.5,4.5,10,10,10h48c5.5,0,10-4.5,10-10v-56
			C117,138.2,112.6,133.7,107,133.7z M97.1,189.7h-28v-36h28C97.1,153.7,97.1,189.7,97.1,189.7z"/>
	</g>
</g>
<g>
	<g>
		<path class="st0" d="M194,133.7h-48c-5.5,0-10,4.5-10,10v56c0,5.5,4.5,10,10,10h48c5.5,0,10-4.5,10-10v-56
			C204,138.2,199.5,133.7,194,133.7z M184,189.7h-28v-36h28V189.7z"/>
	</g>
</g>
<g>
	<g>
		<path class="st0" d="M281,133.7h-48c-5.5,0-10,4.5-10,10v56c0,5.5,4.5,10,10,10h48c5.5,0,10-4.5,10-10v-56
			C291,138.2,286.5,133.7,281,133.7z M271,189.7h-28v-36h28L271,189.7L271,189.7z"/>
	</g>
</g>
<g>
	<g>
		<path class="st0" d="M107,245.7h-48c-5.5,0-10,4.5-10,10v56c0,5.5,4.5,10,10,10h48c5.5,0,10-4.5,10-10v-56
			C117,250.1,112.6,245.7,107,245.7z M97.1,301.7h-28v-36h28C97.1,265.7,97.1,301.7,97.1,301.7z"/>
	</g>
</g>
<g>
	<g>
		<path class="st0" d="M194,245.7h-48c-5.5,0-10,4.5-10,10v56c0,5.5,4.5,10,10,10h48c5.5,0,10-4.5,10-10v-56
			C204,250.1,199.5,245.7,194,245.7z M184,301.7h-28v-36h28V301.7z"/>
	</g>
</g>
<g>
	<g>
		<path class="st0" d="M281,245.7h-48c-5.5,0-10,4.5-10,10v56c0,5.5,4.5,10,10,10h48c5.5,0,10-4.5,10-10v-56
			C291,250.1,286.5,245.7,281,245.7z M271,301.7h-28v-36h28L271,301.7L271,301.7z"/>
	</g>
</g>
<g>
	<g>
		<path class="st0" d="M57.1,351c-1.9-1.9-4.4-2.9-7.1-2.9c-2.6,0-5.2,1.1-7.1,2.9c-1.9,1.9-2.9,4.4-2.9,7.1c0,2.6,1.1,5.2,2.9,7.1
			c1.9,1.9,4.4,2.9,7.1,2.9c2.6,0,5.2-1.1,7.1-2.9c1.9-1.9,2.9-4.4,2.9-7.1S59,352.8,57.1,351z"/>
	</g>
</g>
</svg>
