<?xml version="1.0" encoding="iso-8859-1"?>
<!-- Generator: Adobe Illustrator 19.0.0, SVG Export Plug-In . SVG Version: 6.00 Build 0)  -->
<svg version="1.1" id="Capa_1" xmlns="http://www.w3.org/2000/svg" xmlns:xlink="http://www.w3.org/1999/xlink" x="0px" y="0px"
	 viewBox="0 0 512 512" style="enable-background:new 0 0 512 512;" xml:space="preserve">
<g>
	<g>
		<polygon fill="#fff" points="0,0 0,196.527 30,196.527 30,30 199.578,30 199.578,0 		"/>
	</g>
</g>
<g>
	<g>
		<polygon fill="#fff" points="312.422,0 312.422,30 482,30 482,196.527 512,196.527 512,0 		"/>
	</g>
</g>
<g>
	<g>
		<polygon fill="#fff" points="30,482 30,315.473 0,315.473 0,512 199.578,512 199.578,482 		"/>
	</g>
</g>
<g>
	<g>
		<polygon fill="#fff" points="482,315.473 482,482 312.422,482 312.422,512 512,512 512,315.473 		"/>
	</g>
</g>
<g>
	<g>
		<path fill="#fff" d="M321.513,235.207c17.271-16.977,28.001-40.588,28.001-66.661c0-51.563-41.95-93.514-93.514-93.514
			c-51.564,0-93.514,41.95-93.514,93.514c0,26.074,10.73,49.684,28.001,66.661c-38.7,10.466-67.258,45.88-67.258,87.845v113.916
			h265.542V323.052C388.771,281.087,360.213,245.673,321.513,235.207z M256,105.032c35.022,0,63.514,28.492,63.514,63.514
			c0,35.023-28.492,63.515-63.514,63.515c-35.022,0-63.514-28.492-63.514-63.515C192.486,133.524,220.978,105.032,256,105.032z
			 M358.771,406.967H153.229v-83.916c0-33.631,27.36-60.991,60.991-60.991h83.56v0c33.63,0,60.991,27.36,60.991,60.991V406.967z"/>
	</g>
</g>
</svg>
