<?xml version="1.0" encoding="utf-8"?>
<!-- Generator: Adobe Illustrator 19.2.1, SVG Export Plug-In . SVG Version: 6.00 Build 0)  -->
<svg version="1.1" id="Capa_1" xmlns="http://www.w3.org/2000/svg" xmlns:xlink="http://www.w3.org/1999/xlink" x="0px" y="0px"
	 viewBox="0 0 512 512" style="enable-background:new 0 0 512 512;" xml:space="preserve">
<style type="text/css">
	.st0{fill:#FFFFFF;}
</style>
<g>
	<path class="st0" d="M0,0"/>
	<g>
		<path class="st0" d="M476.9,332.6H352.5c-4.2,0-7.5,3.4-7.5,7.5c0,4.1,3.4,7.5,7.5,7.5h124.4c5.8,0,10.5,4.7,10.5,10.5
			s-4.7,10.5-10.5,10.5H167.5c-25.5,0-46.2-20.7-46.2-46.2c0-21.4,14.6-39.9,35.4-45c1.9-0.5,3.6-1.7,4.7-3.4c1-1.7,1.4-3.8,0.9-5.7
			l-31.8-129.8c-1-4-5.1-6.5-9.1-5.5s-6.5,5.1-5.5,9.1L145.9,265c-23.7,8.9-39.7,31.5-39.7,57.4c0,33.8,27.5,61.3,61.3,61.3h10.6
			c-15.2,12.3-24.9,31.2-24.9,52.2c0,7.1,1.1,14.1,3.3,20.8c1.3,3.9,5.5,6.1,9.5,4.8c3.9-1.3,6.1-5.5,4.8-9.5
			c-1.7-5.2-2.5-10.6-2.5-16.1c0-28.8,23.4-52.2,52.2-52.2s52.2,23.4,52.2,52.2c0,28.8-23.4,52.2-52.2,52.2c-13.2,0-25.9-5-35.6-14
			c-3-2.8-7.8-2.7-10.6,0.4c-2.8,3-2.7,7.8,0.4,10.6c12.5,11.6,28.7,18,45.8,18c37.1,0,67.3-30.2,67.3-67.3
			c0-21.1-9.7-39.9-24.9-52.2h103.5c-15.2,12.3-24.9,31.2-24.9,52.2c0,37.1,30.2,67.3,67.3,67.3s67.3-30.2,67.3-67.3
			c0-21.1-9.7-39.9-24.9-52.2h26.1c14.1,0,25.5-11.4,25.5-25.5C502.5,344,491,332.6,476.9,332.6L476.9,332.6z M460.8,435.8
			c0,28.8-23.4,52.2-52.2,52.2c-28.8,0-52.2-23.4-52.2-52.2s23.4-52.2,52.2-52.2C437.3,383.6,460.8,407,460.8,435.8z"/>
		<path class="st0" d="M510.4,72.9c-1.4-1.8-3.6-2.9-5.9-2.9H150.7L144.3,44c-5.1-20.7-23.5-35.1-44.8-35.1h-74
			C11.4,8.9,0,20.3,0,34.4s11.4,25.5,25.5,25.5h70.1l13.4,54.9c1,4,5.1,6.5,9.1,5.5c4-1,6.5-5.1,5.5-9.1l-14.4-58.6
			c-1.1-4.5-5.1-7.7-9.8-7.7h-74c-5.8,0-10.5-4.7-10.5-10.5s4.7-10.5,10.5-10.5h74c14.3,0,26.7,9.7,30.2,23.7l55.6,226.8
			c1.3,5.5,0.1,11.2-3.4,15.7s-8.7,7-14.4,7c-13.9,0-25.3,11.3-25.3,25.3c0,13.9,11.3,25.3,25.3,25.3h155c4.2,0,7.5-3.4,7.5-7.5
			s-3.4-7.5-7.5-7.5h-155c-5.7,0-10.3-4.6-10.3-10.3c0-5.7,4.6-10.3,10.3-10.3c10.3,0,19.9-4.7,26.2-12.8c4.4-5.6,6.8-12.3,7.1-19.2
			l257-0.7c3.5,0,6.5-2.4,7.3-5.8l46.6-194.3C512.3,77.1,511.8,74.7,510.4,72.9L510.4,72.9z M467.5,199.6h-45.7l9.7-49.7h47.9
			L467.5,199.6z M419.2,134.8H372l4.3-49.7h52.5L419.2,134.8z M360.7,264.6l4.3-50h38.5l-9.8,49.9L360.7,264.6z M256.2,264.9
			l-9.8-50.3h38.5l4.4,50.2L256.2,264.9z M198.5,265.1l-12.4-50.5h44.9l9.8,50.3L198.5,265.1z M293,134.8l-4.3-49.7h72.6l-4.3,49.7
			H293z M355.6,149.9l-4.3,49.7h-52.7l-4.3-49.7L355.6,149.9z M283.5,199.6h-40.1l-9.7-49.7h45.5L283.5,199.6z M277.9,134.8h-47.1
			L221,85.1h52.5L277.9,134.8z M228.1,199.6h-45.7l-12.2-49.7h48.2L228.1,199.6z M299.9,214.6H350l-4.3,50l-41.4,0.1L299.9,214.6z
			 M366.4,199.6l4.3-49.7h45.5l-9.7,49.7H366.4z M205.7,85.1l9.7,49.7h-48.9l-12.2-49.7H205.7z M451.9,264.3l-42.8,0.1l9.8-49.9h45
			L451.9,264.3z M483,134.8h-48.5l9.7-49.7H495L483,134.8z"/>
		<path class="st0" d="M220.4,472.3c20.1,0,36.4-16.4,36.4-36.4c0-20.1-16.4-36.4-36.4-36.4c-20.1,0-36.4,16.4-36.4,36.4
			C184,455.9,200.3,472.3,220.4,472.3z M220.4,414.4c11.8,0,21.4,9.6,21.4,21.4s-9.6,21.4-21.4,21.4s-21.4-9.6-21.4-21.4
			S208.6,414.4,220.4,414.4z"/>
		<path class="st0" d="M408.5,472.3c20.1,0,36.4-16.4,36.4-36.4c0-20.1-16.4-36.4-36.4-36.4s-36.4,16.4-36.4,36.4
			C372.1,455.9,388.4,472.3,408.5,472.3z M408.5,414.4c11.8,0,21.4,9.6,21.4,21.4s-9.6,21.4-21.4,21.4s-21.4-9.6-21.4-21.4
			S396.7,414.4,408.5,414.4z"/>
	</g>
</g>
</svg>
