<?xml version="1.0" encoding="utf-8"?>
<!-- Generator: Adobe Illustrator 19.2.1, SVG Export Plug-In . SVG Version: 6.00 Build 0)  -->
<svg version="1.1" id="Capa_1" xmlns="http://www.w3.org/2000/svg" xmlns:xlink="http://www.w3.org/1999/xlink" x="0px" y="0px"
	 viewBox="0 0 470 470" style="enable-background:new 0 0 470 470;" xml:space="preserve">
<style type="text/css">
	.st0{fill:#FFFFFF;}
</style>
<g>
	<path class="st0" d="M384.8,235c8.9-8.5,17-17.1,24.2-25.5c31.7-37.4,42.2-70.1,29.6-92c-9.8-17-32.2-25.2-64.6-23.8
		c-18.8,0.8-40.5,4.8-64,11.6c-2.9-11.9-6.3-23.2-10-33.7C283.3,25.4,260.2,0,235,0c-16.8,0-32.9,11.4-46.6,33
		c-11.3,17.9-21,42.8-28.3,72.3c-11.8-3.4-23.3-6.2-34.2-8.2c-48.3-8.7-81.8-1.5-94.4,20.4s-2.1,54.5,29.6,92
		c7.2,8.5,15.3,17,24.2,25.5c-8.9,8.5-17,17.1-24.2,25.5c-31.7,37.4-42.2,70.1-29.6,92c8.4,14.6,26.3,22.8,51.9,23.9
		c1.9,0.1,3.8,0.1,5.7,0.1c20.1,0,44.4-4,71-11.8c2.9,12,6.3,23.2,10,33.7c16.6,46.2,39.6,71.6,64.8,71.6s48.3-25.4,64.8-71.6
		c3.8-10.5,7.1-21.8,10-33.7c23.5,6.9,45.2,10.8,64,11.6c2.4,0.1,4.6,0.2,6.9,0.2c28.7,0,48.6-8.2,57.7-24
		c12.6-21.9,2.1-54.5-29.6-92C401.8,252.1,393.7,243.5,384.8,235z M425.5,125c9.1,15.7-1.1,43-28,74.8c-7,8.3-15,16.7-23.7,25
		c-15.4-13.7-32.7-27.2-51.5-40.2c-1.8-22.7-4.9-44.5-9-64.6C369.9,103.4,413.8,104.7,425.5,125z M235,319.1
		c-12.4-6.1-24.9-12.7-37.1-19.8c-12.4-7.1-24.3-14.6-35.7-22.2c-0.9-13.7-1.4-27.8-1.4-42c0-14.3,0.5-28.3,1.4-42.1
		c11.4-7.7,23.3-15.1,35.7-22.2c12.3-7.1,24.7-13.7,37.1-19.8c12.3,6.1,24.7,12.7,37.1,19.8c12.4,7.1,24.3,14.6,35.7,22.2
		c0.9,13.7,1.4,27.8,1.4,42s-0.5,28.3-1.4,42c-11.4,7.7-23.3,15.1-35.7,22.2C259.8,306.4,247.4,313,235,319.1z M146.5,266.2
		c-14.1-10.2-27.3-20.6-39.2-31.2c11.9-10.6,25.1-21,39.2-31.2c-0.5,10.3-0.8,20.7-0.8,31.2C145.8,245.5,146,255.9,146.5,266.2z
		 M323.5,203.8c14.1,10.2,27.3,20.6,39.2,31.2c-11.9,10.6-25.1,21-39.2,31.2c0.5-10.3,0.8-20.7,0.8-31.2S324,214.1,323.5,203.8z
		 M235,15c18.2,0,36.7,22.5,50.7,61.7c3.7,10.3,7,21.3,9.8,33.1c-9.1,3-18.4,6.4-27.9,10.2c-3.8,1.5-5.7,5.9-4.2,9.7
		c1.5,3.8,5.9,5.7,9.7,4.2c8.7-3.5,17.3-6.6,25.6-9.4c3.2,15.6,5.7,32.2,7.4,49.5c-8.6-5.6-17.5-11-26.6-16.2
		c-35.5-20.5-71.5-36.9-105.1-48C188.5,52,212,15,235,15z M72.5,199.8c-26.9-31.8-37.1-59-28-74.8c9.1-15.7,37.8-20.5,78.8-13.1
		c28.7,5.2,61.1,15.8,94.5,30.9c-9.2,4.7-18.3,9.7-27.4,14.9c-9.1,5.2-18,10.7-26.6,16.2c1-9.6,2.2-19.1,3.6-28.3
		c0.6-4.1-2.2-7.9-6.3-8.6c-4.1-0.6-7.9,2.2-8.6,6.3c-2.1,13.4-3.7,27.2-4.8,41.3c-18.8,13-36.1,26.5-51.5,40.2
		C87.5,216.5,79.5,208.1,72.5,199.8z M44.5,345c-9.1-15.7,1.1-43,28-74.8c7-8.3,15-16.7,23.7-25c15.4,13.7,32.7,27.2,51.5,40.2
		c1.8,22.7,4.9,44.5,9,64.7C99.7,366.8,56,364.9,44.5,345z M285.7,393.3C271.7,432.5,253.2,455,235,455s-36.7-22.5-50.7-61.7
		c-9.9-27.4-16.8-60.8-20.5-97.3c8.6,5.6,17.5,11,26.6,16.2c9,5.2,18.2,10.2,27.4,14.9c-8.8,4-17.6,7.7-26.4,11
		c-3.9,1.5-5.8,5.8-4.3,9.7c1.1,3,4,4.8,7,4.8c0.9,0,1.8-0.2,2.7-0.5c27.4-10.6,55.2-24,82.8-39.9c9.1-5.3,18-10.7,26.6-16.2
		c-1.7,17.3-4.2,33.9-7.4,49.5c-8.3-2.8-16.9-5.9-25.6-9.4c-3.8-1.5-8.2,0.3-9.7,4.2s0.3,8.2,4.2,9.7c9.5,3.8,18.8,7.2,27.9,10.2
		C292.7,372,289.4,383.1,285.7,393.3z M425.5,345c-11.7,20.3-55.6,21.6-112.3,5c4.2-20.2,7.2-41.9,9-64.6
		c18.8-12.9,36.1-26.5,51.5-40.2c8.8,8.4,16.7,16.7,23.7,25C424.4,302,434.6,329.3,425.5,345z"/>
	<path class="st0" d="M235,188c-25.9,0-47,21.1-47,47c0,25.9,21.1,47,47,47s47-21.1,47-47S260.9,188,235,188z M235,267
		c-17.6,0-32-14.4-32-32s14.4-32,32-32s32,14.4,32,32S252.6,267,235,267z"/>
</g>
</svg>
