<?xml version="1.0" encoding="iso-8859-1"?>
<!-- Generator: Adobe Illustrator 19.0.0, SVG Export Plug-In . SVG Version: 6.00 Build 0)  -->
<svg version="1.1" id="Capa_1" xmlns="http://www.w3.org/2000/svg" xmlns:xlink="http://www.w3.org/1999/xlink" x="0px" y="0px"
	 viewBox="0 0 512 512" style="enable-background:new 0 0 512 512;" xml:space="preserve">
<g>
	<g>
		<path fill="#fff" d="M442.191,154.206l38.885-43.639l-67.195-59.874l-36.937,41.451c-10.928-6.894-22.385-12.813-34.266-17.71V0H169.323
			v74.435c-27.364,11.28-52.492,27.971-74.052,49.53c-42.933,42.933-66.576,100.014-66.576,160.73
			c0,60.715,23.644,117.797,66.576,160.729C138.204,488.356,195.285,512,256.001,512s117.797-23.644,160.729-66.576
			c42.933-42.933,66.576-100.014,66.576-160.729C483.307,237.32,468.911,192.16,442.191,154.206z M416.32,93.049l22.4,19.959
			l-15.655,17.569c-2.066-2.236-4.169-4.446-6.334-6.611c-4.954-4.954-10.104-9.638-15.419-14.072L416.32,93.049z M199.321,30h0.001
			h113.355v34.483c-18.296-4.675-37.3-7.095-56.678-7.095c-19.378,0-38.382,2.419-56.678,7.095V30z M256.001,482
			c-108.795,0-197.306-88.511-197.306-197.306S147.206,87.389,256.001,87.389S453.307,175.9,453.307,284.695
			S364.796,482,256.001,482z"/>
	</g>
</g>
<g>
	<g>
		<path fill="#fff" d="M256.001,116.611c-92.682,0-168.083,75.402-168.083,168.083s75.401,168.083,168.083,168.083
			s168.083-75.401,168.083-168.083S348.683,116.611,256.001,116.611z M256.001,422.777c-76.14,0-138.083-61.943-138.083-138.083
			c0-76.139,61.943-138.083,138.083-138.083s138.083,61.944,138.083,138.083S332.141,422.777,256.001,422.777z"/>
	</g>
</g>
<g>
	<g>
		<rect fill="#fff" x="241.001" y="171.67" width="30" height="113.03"/>
	</g>
</g>
</svg>
