<?xml version="1.0" encoding="utf-8"?>
<!-- Generator: Adobe Illustrator 19.2.1, SVG Export Plug-In . SVG Version: 6.00 Build 0)  -->
<svg version="1.1" id="Capa_1" xmlns="http://www.w3.org/2000/svg" xmlns:xlink="http://www.w3.org/1999/xlink" x="0px" y="0px"
	 viewBox="0 0 512 512" style="enable-background:new 0 0 512 512;" xml:space="preserve">
<style type="text/css">
	.st0{fill:#FFFFFF;}
</style>
<g>
	<path class="st0" d="M169.6,235.6c-66.4,0-120.4,54-120.4,120.4c0,66.4,54,120.4,120.4,120.4S290,422.4,290,356
		C290,289.6,236,235.6,169.6,235.6L169.6,235.6z M169.6,461.4c-58.1,0-105.4-47.3-105.4-105.4s47.3-105.4,105.4-105.4
		S275,297.9,275,356C275,414.2,227.7,461.4,169.6,461.4L169.6,461.4z"/>
	<path class="st0" d="M169.6,318.3c-20.8,0-37.8,16.9-37.8,37.8c0,20.8,16.9,37.8,37.8,37.8s37.8-16.9,37.8-37.8
		C207.4,335.2,190.4,318.3,169.6,318.3L169.6,318.3z M169.6,378.8c-12.5,0-22.8-10.2-22.8-22.8s10.2-22.8,22.8-22.8
		s22.8,10.2,22.8,22.8C192.3,368.6,182.1,378.8,169.6,378.8L169.6,378.8z"/>
	<path class="st0" d="M436.8,311.7H469c16.2,0,29.4-13.2,29.4-29.4c0-16.2-13.2-29.4-29.4-29.4h-32.2v-92.3
		c0-19.5-15.9-35.4-35.4-35.4h-13.1v-20.1c0-10.3-8.4-18.8-18.8-18.8H236.1c-10.3,0-18.8,8.4-18.8,18.8v20.1h-19.9
		c-7.6,0-14.6,2.4-20.4,6.5v-102c0-16.4-13.4-29.8-29.8-29.8h-79C57.9,0,49.4,8.5,49.4,18.8v11c0,4.1,3.4,7.5,7.5,7.5
		s7.5-3.4,7.5-7.5v-11c0-2.1,1.7-3.8,3.8-3.8h45.5v72.9c0,4.1,3.4,7.5,7.5,7.5s7.5-3.4,7.5-7.5V15h18.4c8.2,0,14.8,6.6,14.8,14.8
		v170.4c-11.4,0.5-22.6,2.3-33.2,5.2V118c0-4.1-3.4-7.5-7.5-7.5s-7.5,3.4-7.5,7.5v92.4C55.3,232.9,13.6,289.7,13.6,356
		c0,86,70,156,156,156c83.5,0,151.8-65.9,155.8-148.4h96.5v33.6c-28.3,3.7-50.2,27.9-50.2,57.2c0,31.8,25.9,57.7,57.7,57.7
		s57.7-25.9,57.7-57.7c0-29.3-21.9-53.5-50.2-57.2L436.8,311.7L436.8,311.7z M469,268c7.9,0,14.3,6.4,14.3,14.3
		c0,7.9-6.4,14.3-14.3,14.3h-32.2V268L469,268z M345.9,268h75.9v28.7h-108c-4.2-10.1-9.4-19.7-15.5-28.7h17.6c4.1,0,7.5-3.4,7.5-7.5
		s-3.4-7.5-7.5-7.5h-29.3c-27.1-30.7-65.9-50.6-109.4-52.7v-16.9h244.7V253h-75.9c-4.1,0-7.5,3.4-7.5,7.5
		C338.4,264.6,341.8,268,345.9,268L345.9,268z M232.4,105.2c0-2.1,1.7-3.7,3.7-3.7h133.5c2.1,0,3.7,1.7,3.7,3.7v20.1H232.4
		L232.4,105.2z M197.5,140.3h204c11.2,0,20.4,9.1,20.4,20.4v7.6H177.1v-3.1v-4.5C177.1,149.5,186.2,140.3,197.5,140.3L197.5,140.3z
		 M169.6,497C91.9,497,28.6,433.8,28.6,356s63.2-140.9,140.9-140.9S310.5,278.3,310.5,356S247.3,497,169.6,497z M325.4,348.5
		c-0.6-12.7-2.8-25.1-6.2-36.8h102.7v36.8H325.4z M472,454.3c0,23.5-19.1,42.7-42.7,42.7c-23.5,0-42.7-19.1-42.7-42.7
		s19.1-42.7,42.7-42.7C452.9,411.7,472,430.8,472,454.3z"/>
	<path class="st0" d="M404.7,454.3c0,13.6,11.1,24.7,24.7,24.7s24.7-11.1,24.7-24.7s-11.1-24.7-24.7-24.7S404.7,440.7,404.7,454.3z
		 M439,454.3c0,5.3-4.3,9.6-9.6,9.6s-9.6-4.3-9.6-9.6s4.3-9.6,9.6-9.6S439,449,439,454.3z"/>
</g>
</svg>
